<svg t="1776350866241" class="icon" viewBox="0 0 1024 1024" version="1.1" xmlns="http://www.w3.org/2000/svg" p-id="11922" width="128" height="128"><path d="M959.982 490.688H64.018c-11.782 0-21.328 9.532-21.328 21.312v426.67c0 11.782 9.546 21.312 21.328 21.312h895.964a21.3 21.3 0 0 0 21.312-21.312V512a21.298 21.298 0 0 0-21.312-21.312z" fill="#CCD1D9" p-id="11923"></path><path d="M42.69 895.984v42.686h63.998v21.312h42.654v-21.312h85.34v21.312h42.654v-21.312h85.34v21.312h42.656v-21.312h85.34v21.312h42.656v-21.312h85.356v21.312h42.622v-21.312h85.372v21.312h42.624v-21.312h85.37v21.312h42.624v-21.312h63.998v-42.686z" fill="#AAB2BC" p-id="11924"></path><path d="M320.008 64.018c-11.734 0-21.328 9.592-21.328 21.342v106.652c0 11.75 9.594 21.344 21.328 21.344h42.668c11.734 0 21.328-9.594 21.328-21.344V170.702c0-11.75 9.594-21.344 21.328-21.344h213.352c11.716 0 21.31 9.594 21.31 21.344v21.31c0 11.75 9.594 21.344 21.312 21.344h42.686c11.75 0 21.31-9.594 21.31-21.344V85.36c0-11.75-9.56-21.342-21.31-21.342H320.008z" fill="#434A54" p-id="11925"></path><path d="M1002.668 533.342H21.346C9.566 533.342 0.02 523.78 0.02 512V213.356c0-11.782 9.546-21.344 21.328-21.344h981.322c11.75 0 21.312 9.562 21.312 21.344V512c-0.002 11.78-9.564 21.342-21.314 21.342z" fill="#E6E9ED" p-id="11926"></path><path d="M213.34 618.684c-11.766 0-21.328-9.594-21.328-21.344v-170.648c0-11.782 9.562-21.344 21.328-21.344h85.34c11.766 0 21.328 9.562 21.328 21.344v170.648c0 11.75-9.562 21.344-21.328 21.344h-85.34z" fill="#FFCE54" p-id="11927"></path><path d="M298.68 384.004h-85.34c-23.514 0-42.656 19.156-42.656 42.688v170.648c0 23.53 19.14 42.686 42.656 42.686h85.34c23.516 0 42.654-19.156 42.654-42.686v-170.648c0-23.532-19.138-42.688-42.654-42.688z m0 213.336H213.354l-0.016-170.618 0.032-0.032h85.278s0.016 0 0.032 0.032v170.618z" fill="#F6BB42" p-id="11928"></path><path d="M725.302 618.684c-11.748 0-21.31-9.594-21.31-21.344v-170.648c0-11.782 9.562-21.344 21.31-21.344h85.376c11.75 0 21.31 9.562 21.31 21.344v170.648c0 11.75-9.56 21.344-21.31 21.344h-85.376z" fill="#FFCE54" p-id="11929"></path><path d="M810.678 384.004h-85.376c-23.498 0-42.622 19.156-42.622 42.688v170.648c0 23.53 19.124 42.686 42.622 42.686h85.376c23.498 0 42.624-19.156 42.624-42.686v-170.648c-0.002-23.532-19.126-42.688-42.624-42.688z m0 213.336h-85.344l-0.032-170.618 0.062-0.032h85.25s0.032 0 0.062 0.032v170.618zM256.01 576.03c-11.782 0-21.328-9.562-21.328-21.344v-85.342c0-11.78 9.546-21.34 21.328-21.34 11.78 0 21.328 9.56 21.328 21.34v85.342c-0.002 11.78-9.548 21.344-21.328 21.344z" fill="#F6BB42" p-id="11930"></path><path d="M767.99 576.03c-11.782 0-21.312-9.562-21.312-21.344v-85.342c0-11.78 9.532-21.34 21.312-21.34s21.312 9.56 21.312 21.34v85.342c0 11.78-9.53 21.344-21.312 21.344z" fill="#F6BB42" p-id="11931"></path></svg>