<svg t="1735889944098" class="icon" viewBox="0 0 1465 1024" version="1.1" xmlns="http://www.w3.org/2000/svg" p-id="9761" width="256" height="256"><path d="M1219.977682 811.280139c5.658608-51.566349-60.875672-100.394662-147.671421-108.061164a238.848028 238.848028 0 0 0-24.277255-1.186482c-23.18204-40.522936-83.875177-73.0143-158.258495-80.041926-71.006407-6.753823-135.076455 12.138627-168.024157 44.721258-22.360629-23.090772-61.605815-40.340401-107.696092-44.721258-62.70103-5.749876-118.648237 14.329056-137.723224 46.911687a257.284139 257.284139 0 0 0-43.991115-8.031573c-83.236302-7.757769-155.155387 25.920076-160.448924 75.113461a56.586082 56.586082 0 0 0 5.932412 31.396149c-50.379867 12.138627-86.248142 40.79674-90.263928 76.573747-5.841144 53.848046 63.248637 104.501717 154.425244 112.898361a261.11739 261.11739 0 0 0 78.58164-4.107054c32.856435 33.221506 91.90675 58.593976 161.087799 64.982727 66.625549 6.206215 127.775025-6.480019 167.111479-30.93981a203.162289 203.162289 0 0 0 80.224462 24.368523c52.205224 4.745929 99.481984-8.396644 125.219524-31.761221 5.111001 0.730143 10.404538 1.460286 15.789342 1.916626 87.16082 8.031573 162.456817-27.380362 168.024158-78.764176a52.296492 52.296492 0 0 0-1.095215-18.253575c46.272813-12.686235 79.403051-39.336454 83.053766-73.0143z" fill="#F3E8D8" p-id="9762"></path><path d="M614.871672 1023.934287c-11.134681 0-22.451897-0.638875-34.042917-1.642822-66.716816-6.206215-127.13615-30.300934-162.183013-64.708923a264.037962 264.037962 0 0 1-77.668962 3.741983c-59.962994-5.476072-112.350754-28.931916-139.913652-62.609762a74.29205 74.29205 0 0 1-18.253575-55.308332c3.924519-35.594471 36.50715-64.800191 88.438571-79.03798a59.962994 59.962994 0 0 1-4.107055-28.840648C272.434606 684.509061 346.817924 648.001911 432.244655 656.398555a245.693119 245.693119 0 0 1 41.526883 7.30143c22.360629-32.947703 79.311783-51.840153 140.187456-46.272812A185.182518 185.182518 0 0 1 721.016211 660.04927c36.50715-32.947703 100.394662-49.37592 168.663032-43.078437 73.0143 6.845091 134.985187 38.058704 160.357656 80.224462a143.564367 143.564367 0 0 1 22.634433 1.186483c57.590029 5.384805 107.696092 27.380362 133.889973 60.145529a70.550067 70.550067 0 0 1 17.614699 52.935368c-3.650715 33.404042-34.407989 60.784405-82.688694 75.204728a56.494814 56.494814 0 0 1 0 15.698075c-6.02368 53.848046-83.510105 91.267875-173.408962 82.688694a91.267875 91.267875 0 0 1-14.055253-1.642821c-27.380362 24.277255-76.117408 36.50715-126.862346 31.487417a206.99554 206.99554 0 0 1-79.768122-23.273309 263.855426 263.855426 0 0 1-132.520955 32.308828z m-193.305358-76.208675l1.642821 1.825357c33.49531 33.677846 92.636893 57.590029 158.258495 63.887513 62.609762 5.841144 124.12431-5.476072 164.282175-30.300935l2.281697-1.27775 2.281697 1.27775a197.594949 197.594949 0 0 0 78.399104 23.273308c48.645777 4.654662 95.922536-7.027626 121.660077-30.574738l1.73409-1.460286h2.099161c5.111001 0.730143 10.31327 1.460286 15.515539 2.007893 85.244195 7.849037 158.258495-25.737541 163.18696-74.748389a53.756778 53.756778 0 0 0-0.912679-17.067093l-1.003947-4.198322 4.28959-1.095214c46.82042-12.229895 76.756283-37.967436 80.041927-68.542174a62.792298 62.792298 0 0 0-15.698075-46.272813c-24.368523-30.027131-73.0143-51.840153-127.775025-56.768618q-12.229895-1.095214-24.368522-1.095214h-2.646769l-1.186482-2.372965c-23.273308-40.705472-83.966445-71.28021-155.155387-77.851497-66.99062-6.206215-131.42574 10.860877-164.282175 43.443508l-3.285643 3.285643-2.920572-2.920572c-22.543165-23.090772-61.879619-39.336454-105.049324-43.35224C554.087268 620.621548 499.144007 638.875123 479.430146 671.275219l-1.825357 3.01184-3.01184-1.003947a239.486903 239.486903 0 0 0-43.169705-7.849037c-80.680801-7.575234-150.409458 24.277255-155.155387 71.006407a53.209171 53.209171 0 0 0 5.56734 29.023184l2.281697 5.111001-5.293537 1.27775c-50.014795 12.229895-83.236302 40.157865-86.887016 73.0143a65.804138 65.804138 0 0 0 16.519485 48.737045c25.646273 31.396149 76.938818 54.213118 133.889972 59.506654A257.923014 257.923014 0 0 0 419.832224 949.185898z" fill="#F7F3ED" p-id="9763"></path><path d="M1367.101496 190.293519h-126.67981a20.261468 20.261468 0 0 1-14.14652-5.476073 18.253575 18.253575 0 0 1-5.841144-13.142574 19.257522 19.257522 0 0 1 19.896396-18.253574h20.535272a33.221506 33.221506 0 0 0 0-66.443013h-185.638857a33.221506 33.221506 0 0 0 0 66.443013H1113.468072a18.709914 18.709914 0 1 1 3.01184 37.32856h-55.3996a50.562403 50.562403 0 0 0-4.928465 100.94227 44.356187 44.356187 0 0 0 4.928465 0h306.112452a50.562403 50.562403 0 0 0 4.928465-100.94227 44.356187 44.356187 0 0 0-5.019733-0.456339zM386.701985 637.049766h-73.014299a20.1702 20.1702 0 0 1-5.384805-40.066597 26.558952 26.558952 0 0 1 5.384805 0h23.18204A42.07449 42.07449 0 0 0 365.071499 587.034971a32.673899 32.673899 0 0 0 4.380858-45.633938 49.649724 49.649724 0 0 0-4.380858-4.380858 42.622098 42.622098 0 0 0-28.201773-10.587073H49.010849a42.348294 42.348294 0 0 0-28.201774 10.222002A33.404042 33.404042 0 0 0 9.126787 561.753769a33.769114 33.769114 0 0 0 12.138628 25.189934 42.987169 42.987169 0 0 0 28.384309 10.31327h121.11247a20.1702 20.1702 0 0 1 5.384804 40.066597 26.558952 26.558952 0 0 1-5.384804 0h-63.887513a54.213118 54.213118 0 1 0-11.499752 107.878628 48.463242 48.463242 0 0 0 11.499752 0h280.00984a54.213118 54.213118 0 1 0 11.408485-107.878628 47.733099 47.733099 0 0 0-11.408485 0z" fill="#FFCB27" opacity=".26" p-id="9764"></path><path d="M191.662537 463.640804h24.368523v260.204711H191.662537z m1022.200198 0h24.368522v260.204711H1213.862735z" fill="#F34541" p-id="9765"></path><path d="M1201.815375 622.173102a24.368523 24.368523 0 1 0 48.645777 0 24.368523 24.368523 0 1 0-48.645777 0zM179.615178 622.173102a24.368523 24.368523 0 1 0 48.645777 0 24.368523 24.368523 0 0 0-48.645777 0z" fill="#F6C48B" p-id="9766"></path><path d="M864.398042 568.507592a150.957065 150.957065 0 0 0-299.176094 0l-0.912678 6.114948-379.309288-71.645282 0.821411-5.841144C229.721241 212.56288 452.414855 6.114948 715.083799 6.114948s485.27129 206.813004 529.353674 491.021166l0.82141 5.841144L865.675792 574.987611z" fill="#F34541" p-id="9767"></path><path d="M715.083799 12.138627c262.668944 0 480.616629 209.916112 523.238726 485.910166L870.695525 567.594913a156.980745 156.980745 0 0 0-310.310774 0L191.662537 498.048793C234.46717 222.237275 452.414855 12.138627 715.083799 12.138627m0-12.138627C449.403015 0 224.245168 208.72963 179.615178 496.223435l-1.825358 12.229895 11.59102 2.190429L556.734036 580.098612l12.138627 2.281697 2.190429-12.138627a144.842117 144.842117 0 0 1 287.128735 0l2.007893 12.138627 12.229895-2.281697L1240.512954 511.100099l12.138627-2.190429-1.825357-12.229895C1206.470037 208.72963 981.31219 0 715.44887 0z" fill="#F1B622" p-id="9768"></path><path d="M715.083799 346.817924a231.272795 231.272795 0 0 0-229.903777 206.630469l74.930926 14.14652a156.980745 156.980745 0 0 1 311.223453 0l74.29205-14.14652A231.181527 231.181527 0 0 0 715.083799 346.817924z" fill="#E53939" p-id="9769"></path><path d="M616.69703 475.961967L373.376876 141.28267l4.198322-3.650715A508.544598 508.544598 0 0 1 715.083799 5.932412 501.973311 501.973311 0 0 1 1049.58056 134.255044l4.198322 3.741983-242.590011 335.865779-5.111001-4.015787A146.484939 146.484939 0 0 0 721.016211 438.085799h-11.773556a146.850011 146.850011 0 0 0-87.434624 33.404042zM389.805093 143.108028l229.356169 314.965436A157.893423 157.893423 0 0 1 702.762636 426.312243V18.253575a497.136114 497.136114 0 0 0-312.957543 124.854453z m337.691137 282.930411A158.89737 158.89737 0 0 1 808.633371 456.339374l228.169686-316.425722A489.469612 489.469612 0 0 0 727.313694 18.253575z" fill="#F1B622" p-id="9770"></path><path d="M857.918023 561.936305l-114.267379 21.447951L815.660997 483.719736a111.894414 111.894414 0 0 0-9.126788-8.122841l-80.406997 111.438076h-1.003947V444.383282h-12.138627v141.921546l-5.019733-1.003947-81.137141-111.529343c-3.285643 2.5555-6.571287 5.111001-9.583127 7.849037l73.0143 100.394662-117.918094-21.904289c-0.912679 4.107054-1.460286 8.396644-2.007894 12.138627l124.671917 22.999504-47.64183 10.952145a73.835711 73.835711 0 0 0 144.111974 0l-46.272812-10.587073L860.108452 574.987611c-0.365071-4.745929-1.095214-9.126787-2.190429-13.051306z" fill="#F6C48B" p-id="9771"></path><path d="M103.589038 42.348294A12.229895 12.229895 0 0 0 91.267875 54.760725v50.65367a12.594967 12.594967 0 0 0 25.189933 0V54.760725a12.047359 12.047359 0 0 0-11.773556-12.503699z m0 119.37838A12.229895 12.229895 0 0 0 91.267875 173.865301v50.288599a12.594967 12.594967 0 0 0 25.189933 0v-49.923527a12.047359 12.047359 0 0 0-11.773556-12.503699z m-40.705472-34.590524H12.503699a12.594967 12.594967 0 0 0 0 25.098665h50.197331a12.594967 12.594967 0 0 0 0-25.098665z m132.155882 0H144.203242a12.594967 12.594967 0 0 0 0 25.098665h50.836206a12.594967 12.594967 0 1 0 0-25.098665z" fill="#F34541" p-id="9772"></path><path d="M351.655122 466.652644v-0.730143a6.02368 6.02368 0 0 0 1.095214-1.551554 58.046368 58.046368 0 0 0 5.019733-21.447951c1.095214-10.952145 1.73409-16.793289 1.551554-17.6147a38.697579 38.697579 0 0 0-1.551554-5.476072 80.133194 80.133194 0 0 1-2.281697-8.031573 41.983222 41.983222 0 0 0-2.190429-8.396644 11.864824 11.864824 0 0 0-1.27775 7.483965A23.729647 23.729647 0 0 0 355.944712 419.832224a24.277255 24.277255 0 0 1 3.559447 7.027626c0 1.73409-0.912679 2.646768-3.559447 2.920572a13.051306 13.051306 0 0 1-5.932412 0 9.948198 9.948198 0 0 1-3.924519-5.932412 14.785396 14.785396 0 0 0-2.829304-5.749876 34.864328 34.864328 0 0 1-12.138627 15.241735h-0.821411a57.681297 57.681297 0 0 0 3.468179-10.130734l1.369018-9.126787a21.630486 21.630486 0 0 0 0.821411-8.396645L334.040422 401.578649a3.01184 3.01184 0 0 1-1.095215 1.27775l-5.202269 2.920572c-2.190429 1.642822-3.559447 2.099161-3.83325 1.460286a15.971878 15.971878 0 0 0 1.095214-7.118894 9.126787 9.126787 0 0 1 5.658608-8.305377 19.713861 19.713861 0 0 1 8.122841-3.194375 6.662555 6.662555 0 0 1 3.285644 0l1.825357 1.003946 6.845091-3.376911h0.730143a17.6147 17.6147 0 0 1 0 4.380858l-4.015787 9.126788a23.090772 23.090772 0 0 0 0 10.587073 15.515539 15.515539 0 0 0 3.103108 6.114948 38.971383 38.971383 0 0 1 1.095215-15.880611 12.686235 12.686235 0 0 1 4.015786-3.285643 13.416378 13.416378 0 0 1 4.928465-1.825358 13.233842 13.233842 0 0 1 4.563394 1.003947l3.194376 5.384805 3.650715-2.920572a9.126787 9.126787 0 0 1 4.015786-2.190429 3.833251 3.833251 0 0 0 2.464233-1.277751c0 1.369018-0.912679 2.5555-1.460286 3.833251l-2.555501 5.111001-0.730143 5.841144a21.447951 21.447951 0 0 0-0.730143 5.476073 18.983718 18.983718 0 0 0 5.567341 0 8.122841 8.122841 0 0 0 2.829304-1.369019l3.285643-2.464232 4.015787-1.27775 0.821411-1.460286a7.940305 7.940305 0 0 1 2.099161 1.460286 73.0143 73.0143 0 0 1 0 10.952145c1.825357 0.912679 2.920572 1.460286 3.285643 1.27775a17.432164 17.432164 0 0 0 3.376912-3.01184 33.130239 33.130239 0 0 1 7.757769-5.476073l-2.007893-1.095214L401.578649 410.705436l-8.305377-4.745929-2.372964-1.916625-10.404538-6.571287-1.186482-1.369018a103.862841 103.862841 0 0 1-10.222002-7.75777A20.1702 20.1702 0 0 1 365.071499 383.325074a12.321163 12.321163 0 0 1-0.730143-4.745929 51.018742 51.018742 0 0 0-2.007893-9.856931c-1.186482-4.563394-1.916625-7.666501-2.281697-9.126787a41.161812 41.161812 0 0 0-4.745929 1.551553l-4.289591 4.198323a10.769609 10.769609 0 0 1 0.730143-6.571287h1.095215l1.460286-2.099161 3.559447-2.099161 4.015786-2.555501a10.31327 10.31327 0 0 1 6.571287-1.186482 11.225949 11.225949 0 0 1 4.472126 1.460286 2.738036 2.738036 0 0 1 1.369018 2.190429 5.658608 5.658608 0 0 1 0 3.01184l-1.916625 4.563393-1.003947 5.293537-0.638875 1.369018a25.189933 25.189933 0 0 1-1.27775 6.845091 14.967931 14.967931 0 0 1-3.103108 6.388751 10.769609 10.769609 0 0 0 1.003947 1.73409 26.285148 26.285148 0 0 0 5.111001-0.730143 17.523432 17.523432 0 0 1 9.126787 0L383.325074 383.325074a23.729647 23.729647 0 0 1 4.107054 2.555501c0.912679 0.912679 1.369018 1.095214 1.460286 1.003946h1.825358a38.24124 38.24124 0 0 1-0.912679-6.480019v-4.928465a41.070544 41.070544 0 0 1 2.007893-10.404538 44.538723 44.538723 0 0 0 2.099162-5.841144c0.638875 0 1.095214 0 1.186482-0.638875l5.111001-3.01184a5.019733 5.019733 0 0 1 3.650715 0c0.730143 0 1.003947 1.916625 0.730143 4.74593l-0.730143 4.28959v7.118894l-0.730143 2.5555a37.7849 37.7849 0 0 1 8.396644-1.551553 16.884557 16.884557 0 0 1 4.28959 0l7.75777 2.464232 3.468179 0.912679a82.141087 82.141087 0 0 1 11.134681 5.111001 46.455348 46.455348 0 0 1 14.876663 16.33695L466.105036 410.705436l2.190429 2.555501 2.007894 1.460286 1.734089 2.281697 2.281697 1.551554V419.832224l-3.376911-1.825358-3.285644-1.003946-5.749876-2.738036-4.380858-2.099162-2.5555-1.460286a10.587073 10.587073 0 0 1-4.563394-2.464232l-9.126787-5.932412a1.551554 1.551554 0 0 0 0-1.27775l-2.464233-0.912679a20.1702 20.1702 0 0 0-3.833251-3.559447l-2.190429-1.916625L428.959011 392.451862l-6.297483-3.924519a9.126787 9.126787 0 0 0-3.285643-1.186482h-1.003947a2.5555 2.5555 0 0 1-2.281697 0l-2.007893-2.738037-2.281697-1.27775-1.095215-0.730143a26.650219 26.650219 0 0 0-5.111-1.916625h-5.841144a29.114452 29.114452 0 0 0 3.650715 16.063146l5.476072 3.103107 1.186482 1.369019 3.194376 1.825357 4.745929 4.380858 2.555501 1.369018 1.551554 1.186483a3.01184 3.01184 0 0 0 2.464232 0.82141h1.186483l2.190429 1.369018a7.666501 7.666501 0 0 0 3.01184 1.460286h1.460286l2.190429 1.916626a12.229895 12.229895 0 0 1-2.646769 3.103108 20.62654 20.62654 0 0 1-5.111001 1.551553 16.610753 16.610753 0 0 1-5.202269 0l-3.194375-1.825357h-3.194376a4.928465 4.928465 0 0 1-3.468179 2.829304 2.099161 2.099161 0 0 1-2.007893 1.551554h-1.551554l-2.920572 1.73409-2.646768-0.638876q4.107054-3.103108 1.642821-4.380858a6.388751 6.388751 0 0 0-4.837197 0 8.214109 8.214109 0 0 0-4.28959 2.464233l5.111001 3.741983a6.662555 6.662555 0 0 0 3.650715 1.186482h1.460286l2.099161 1.003947 1.551554 0.730143 1.460286 1.460286a54.760725 54.760725 0 0 0 5.384804 3.559447 19.896397 19.896397 0 0 1 7.210162 7.849037 11.317216 11.317216 0 0 1 0 10.76961h-0.912678a5.019733 5.019733 0 0 1-1.277751 1.551553 11.59102 11.59102 0 0 1-3.559447 0 10.495806 10.495806 0 0 1-3.376911 0l-7.210162-0.638875h-0.821411l3.650715 6.936359a2.5555 2.5555 0 0 1 0 1.642821l-1.27775 0.912679a10.039466 10.039466 0 0 0-1.916626 2.007893 9.765663 9.765663 0 0 1-8.396644 0 16.519485 16.519485 0 0 1-3.741983-2.920572 54.760725 54.760725 0 0 0-4.380858-4.015786 14.146521 14.146521 0 0 1-2.464233-2.190429l-2.099161-2.738036a11.864824 11.864824 0 0 1-7.118894 0l-3.103108-19.440058 2.555501 8.670449h0.912679v-17.340897l-3.559448-1.916625c-1.186482 0-2.5555-1.186482-4.28959-1.825358 0 3.559447-0.638875 7.118894-0.730143 10.678342a40.066597 40.066597 0 0 1-1.551554 10.860877l-2.281696 5.202269-2.372965 6.388751a28.201773 28.201773 0 0 1-12.138627 12.594967zM392.451862 433.066066l-2.829305-1.186483a54.760725 54.760725 0 0 0-1.095214 13.416378h2.920572l1.460286 0.730143 1.460286 0.821411a58.320172 58.320172 0 0 1-1.916625-13.781449z m21.265414 17.067092a4.472126 4.472126 0 0 0 0-2.190429l-1.825357-2.099161-1.825358-2.646768a15.606807 15.606807 0 0 0-5.111001-4.654662l-5.202268-2.281697-3.285644-1.825357h-2.007893a16.610753 16.610753 0 0 0 0 3.01184l3.559447 4.928465 1.095214 1.916625A9.126787 9.126787 0 0 0 401.578649 447.212586a7.575234 7.575234 0 0 1 2.738036 2.372965l0.912679 1.27775h0.912679z m132.70349-177.150945a29.662059 29.662059 0 0 0 12.777503-5.476072l3.103108-3.468179a12.86877 12.86877 0 0 1 2.920571-1.551554 14.420324 14.420324 0 0 0 3.285644-1.825358l5.293537-4.654661a59.780458 59.780458 0 0 0 5.841144-5.932412 15.606807 15.606807 0 0 0 1.916625-4.380858c0-1.003947 0.456339-2.007893 0.638875-3.01184s-1.095214-2.372965-1.734089-3.468179l-2.464233-5.476073a2.646768 2.646768 0 0 1-0.912679-1.642821 6.02368 6.02368 0 0 1 0-2.555501v-2.372965a13.32511 13.32511 0 0 0-2.007893-3.01184l-2.372965-3.285643a4.380858 4.380858 0 0 1 0-2.646768 5.841144 5.841144 0 0 1 2.281697-4.74593 10.678341 10.678341 0 0 0 0.821411 2.920572 30.118399 30.118399 0 0 0 2.007893 2.738036 53.482975 53.482975 0 0 1 7.118894-3.83325c2.5555-1.27775 4.198322-2.372965 4.563394-3.285644a4.198322 4.198322 0 0 1 1.186483-1.825357H593.241186l1.460286-2.555501a32.947703 32.947703 0 0 1-3.194376-6.480019h-1.095214l-2.007893 2.281697a2.738036 2.738036 0 0 1-2.372965 1.095214H584.114399l-4.654662 3.194376a9.126787 9.126787 0 0 1 2.829304-4.015786l-0.730143-2.920572-1.916625 1.825357-3.833251 5.019733-6.206216 6.297483-1.916625 3.194376-1.825357-0.912679-2.646769 0.912679a5.476072 5.476072 0 0 1-1.734089-1.460286l-2.646769-1.460286A8.305377 8.305377 0 0 1 556.734036 209.916112a4.837197 4.837197 0 0 1 2.099161-5.56734v-0.730143l9.126788-13.781449-1.642822-1.916626-4.015786-1.186482v-1.825358a7.392698 7.392698 0 0 1 3.468179 0 45.633937 45.633937 0 0 0 6.023679 0.730143 15.150467 15.150467 0 0 1 4.928466 0.547608 10.495806 10.495806 0 0 1 2.372964 1.734089 4.472126 4.472126 0 0 0 4.289591 0 6.571287 6.571287 0 0 0 2.5555-1.186482l8.396645-5.384805 7.575233-3.559447a26.011344 26.011344 0 0 1 4.563394 1.27775 12.138627 12.138627 0 0 1 5.019733 2.007894l1.73409 1.825357a6.388751 6.388751 0 0 1 0.912678 1.460286l0.730143 3.103108-1.186482 1.186482H611.494761l-1.095214 1.369018-8.305377 3.741983-2.738036 2.555501 4.380858 2.464232a11.59102 11.59102 0 0 0 5.841144 0.821411 22.999504 22.999504 0 0 1 10.313269 3.376912v1.27775a1.27775 1.27775 0 0 1 0 0.821411 9.126787 9.126787 0 0 1-1.916625 2.920572 11.956092 11.956092 0 0 1-3.833251 3.559447 4.28959 4.28959 0 0 0-0.547607 1.825357 10.130734 10.130734 0 0 0 1.825358 3.376912l3.83325 9.126787 2.190429 3.741983 5.841144-1.642822V228.169687l-3.285643-3.468179-2.555501-1.186483s0-0.638875 1.003947-0.638875l8.487912 2.190429a25.098666 25.098666 0 0 0 9.765663-0.912679c0 0.821411 2.190429 1.27775 5.202269 1.460286a9.85693 9.85693 0 0 1 6.206215 1.551554 7.757769 7.757769 0 0 1 2.190429 3.01184c0.730143 2.829304 0 4.380858-1.460286 4.74593l-4.380858 1.27775-8.487912 0.821411-4.837197 1.369018-9.126788 2.281697a12.686235 12.686235 0 0 0 0.912679 6.662555l2.829304 11.773555 1.186482 4.107055a8.487912 8.487912 0 0 0 1.095215 4.107054l0.730143 3.833251a11.043413 11.043413 0 0 1 0 3.468179l-0.547607 1.369018a6.297483 6.297483 0 0 0 0.730143 2.555501 5.476072 5.476072 0 0 1 0 1.734089 2.007893 2.007893 0 0 1 0 1.460286V282.930412a4.015786 4.015786 0 0 0 0 2.920572v7.30143l1.642821 6.388751a7.849037 7.849037 0 0 1 0 5.019733l-1.916625-1.369018a9.126787 9.126787 0 0 1-1.916625-2.920572c0-1.460286-1.369018-2.646768-1.825358-3.741983l-7.210162-12.138627-2.920572-6.845091-1.460286-3.194375-2.099161-6.206216-7.483966-19.713861h-0.912679l-7.757769 5.476073-9.126787 9.126787a39.701526 39.701526 0 0 1-11.043413 7.210162 62.974834 62.974834 0 0 1-18.253575 4.015787c-8.396644 0.912679-12.86877 0.730143-13.507646-0.912679z m51.475082-33.951649l3.741983-1.369018a3.01184 3.01184 0 0 0 1.551553-2.464233l-2.281696-7.027626a22.634433 22.634433 0 0 0-2.190429-5.841144h-1.186483l-1.734089 1.186482-1.825358 0.912679a17.340896 17.340896 0 0 1-9.85693 4.74593 24.003451 24.003451 0 0 0 5.111001 5.841144l3.741982 3.011839 1.277751 2.646769a11.956092 11.956092 0 0 0 3.650715-1.642822z m198.598895-31.669953a16.428217 16.428217 0 0 1 6.662555 0c1.825357 0 4.28959 3.01184 7.666502 7.392698a45.633937 45.633937 0 0 1 8.12284-5.56734l6.02368-2.555501a6.845091 6.845091 0 0 1-0.638875 1.095215l-1.73409 1.825357a77.942765 77.942765 0 0 0-5.658608 6.662555l-4.563394 5.749876-1.551553 3.194376a51.383813 51.383813 0 0 1-4.380858 6.571287l-3.194376 8.57918c-1.825357 2.5555-3.285643 3.559447-4.380858 3.103108s-0.821411-0.912679-1.642822-2.099161L794.030511 237.296474a11.317216 11.317216 0 0 1-1.095215-4.837197 17.705968 17.705968 0 0 1 0-5.384805 2.738036 2.738036 0 0 1 1.095215-1.916625l1.825357-0.912679a10.952145 10.952145 0 0 0 1.186482-2.5555 2.646768 2.646768 0 0 1 1.186483-2.281697l3.103108-3.559447 0.82141-2.281697q0.730143-1.642822 0-2.190429h-1.186482s-1.003947 0-2.464233-1.73409-2.281697-2.190429-2.281696-2.646768z m42.53083-37.237292l2.738036 1.186482 3.650715 3.285643 3.376911 2.555501a19.531325 19.531325 0 0 1 3.376912 8.305377v10.860877l-2.007893 3.468179-1.460286 3.559447-2.555501 5.111001c2.281697 2.5555 3.468179 4.107054 3.468179 4.745929L848.791235 219.042899a16.063146 16.063146 0 0 1-5.111001-5.384804 7.666501 7.666501 0 0 0-3.011839 1.734089l-4.289591 6.662555-2.738036 3.924519-1.734089 3.285643-0.730143 1.369019-1.551554 3.011839-0.912679 0.638876a7.392698 7.392698 0 0 0 0 2.007893l-2.738036 4.745929a7.575234 7.575234 0 0 0-1.277751 2.920572l-1.27775 4.928466 10.039466 0.730143a109.52145 109.52145 0 0 0 20.444004-1.369019c3.559447-7.027626 5.841144-12.138627 6.845091-13.963984l2.646768-6.753823a32.21756 32.21756 0 0 1-5.202268-4.107055c-2.464233-2.190429-3.650715-3.376911-3.559448-3.741982v-3.924519l5.111001 1.551554a19.440057 19.440057 0 0 0 5.111001 0.912679 7.118894 7.118894 0 0 0 4.015787-2.829305l4.745929-9.85693 2.464233-3.650715 2.646768-4.28959a3.833251 3.833251 0 0 1-0.912678-1.825358l-7.849038-1.642821a27.380362 27.380362 0 0 1-5.202268-5.019733c0-0.821411 1.916625-1.551554 4.654661-2.099162l4.472126-1.186482h1.551554a3.01184 3.01184 0 0 1 1.369018 1.003947l5.749876 4.107054a14.967931 14.967931 0 0 1 6.206216 7.575234 12.503699 12.503699 0 0 1 0.912678 5.202269 24.642326 24.642326 0 0 1-2.007893 2.099161 37.7849 37.7849 0 0 0-3.194376 3.468179 27.380362 27.380362 0 0 0-3.376911 6.753823 41.800687 41.800687 0 0 1 8.57918 3.650715 60.236797 60.236797 0 0 1 7.483966 4.198322h1.460286c4.745929 5.749876 6.662555 9.126787 6.02368 11.499752a17.249628 17.249628 0 0 1-1.642822 3.741983l-6.936358 4.654662-6.936359 7.30143a4.928465 4.928465 0 0 0 2.372965 1.460286h4.380858l2.099161 0.912678 1.551554 4.198322a10.769609 10.769609 0 0 0 2.464232 2.920572 7.666501 7.666501 0 0 1 2.190429 5.841144c-1.369018 0-2.190429-0.638875-2.190429 0l-1.095214 1.460286a26.832755 26.832755 0 0 0-4.015787-3.194375l-2.464232-1.003947a8.214109 8.214109 0 0 1-2.555501-1.186482l-1.825357-1.369018a25.463737 25.463737 0 0 0-6.388751-1.186483h-7.849038l-1.095214-1.460286h-2.738036a9.674395 9.674395 0 0 1-2.372965 1.551554h-5.293537c-1.186482 0-1.642822 1.003947-1.460286 1.003947l-1.916625 3.924518-1.095215 0.821411a1.003947 1.003947 0 0 0 0 0.730143l5.932412 1.73409a23.364576 23.364576 0 0 1 5.658608 4.198322l7.118895 6.388751a26.650219 26.650219 0 0 1 3.924518 5.567341 36.50715 36.50715 0 0 1 2.190429 4.654661 12.321163 12.321163 0 0 0 0.821411 4.563394 39.610258 39.610258 0 0 1 0 4.654662 11.682288 11.682288 0 0 1-1.186482 4.654661 13.051306 13.051306 0 0 0-1.186483 5.932412 11.956092 11.956092 0 0 1 0 2.555501v1.003946h-1.369018l-1.095214 2.281697h-2.099161l-0.912679-2.464232a10.952145 10.952145 0 0 1-2.829304-1.186483 19.805129 19.805129 0 0 1-3.01184-5.202269 19.531325 19.531325 0 0 1-1.73409-10.404537v-6.388752a31.396149 31.396149 0 0 0-1.369018-5.019733 43.443508 43.443508 0 0 0-1.551554-5.111001l-4.015786-4.28959-3.194376-4.015786-2.007893-1.186483v2.555501a1.551554 1.551554 0 0 0-1.642822 1.003946l-1.186482 2.646769-2.829304 2.281697-5.111001 5.293536a32.035024 32.035024 0 0 1-5.841144 3.01184 18.253575 18.253575 0 0 1-7.027627 1.73409h-10.678341l-3.285643-0.912679h-3.194376l-1.460286-1.27775-0.912679 8.122841-2.829304 1.460286-3.741983-3.285644a36.50715 36.50715 0 0 1-2.5555-5.841144 15.971878 15.971878 0 0 1-1.642822-5.749876l2.190429-4.654661v-4.563394l0.638875-1.003947-0.821411-1.186482c0-0.821411 0.547607-1.642822 0.912679-2.464233a9.126787 9.126787 0 0 0 0-3.924518v-3.103108l1.003947-1.27775a5.658608 5.658608 0 0 1 0-3.01184l1.186482-2.920572a28.566845 28.566845 0 0 0 1.460286-4.74593l1.825357-6.571287a43.169705 43.169705 0 0 1 3.285644-6.480019c1.27775-3.103108 2.829304-6.571287 4.654662-10.222002s3.376911-6.662555 4.654661-9.126787a19.348789 19.348789 0 0 1 2.281697-3.285644l1.916625-4.107054h-3.103107a6.845091 6.845091 0 0 1 3.011839-2.555501h2.190429a4.015786 4.015786 0 0 0 2.464233-2.281696 5.019733 5.019733 0 0 0 0-4.289591c-0.821411-1.73409-1.095214-2.829304-0.730143-3.285643l2.920572 1.369018 0.912679 2.007893 3.194375-3.468179a42.987169 42.987169 0 0 0 3.194376-5.658608 14.055253 14.055253 0 0 0 1.642822-5.111001l-0.730143-2.007893h-0.912679a5.293537 5.293537 0 0 0-2.920572 0h-1.460286a6.388751 6.388751 0 0 1-1.27775-1.460286 19.896397 19.896397 0 0 0-6.02368-3.833251l-1.095214 1.460286-0.730143-0.547607v-3.46818s0-0.821411 1.460286-1.642821a10.31327 10.31327 0 0 1 3.285643-2.190429 5.658608 5.658608 0 0 1 3.01184 0 2.281697 2.281697 0 0 0 1.551554-1.003947zM819.585516 276.450393a12.686235 12.686235 0 0 0 3.194375-3.741983 7.940305 7.940305 0 0 1 1.460286-2.099161h1.095215l-1.095215 2.5555a10.769609 10.769609 0 0 0-0.912679 2.738036 2.920572 2.920572 0 0 1-1.186482 2.007894l-1.003947 0.912678 0.730143 0.821411 1.003947-0.821411h0.821411a57.863833 57.863833 0 0 0 7.483966-3.83325 32.308828 32.308828 0 0 0 12.138627-12.138628 28.931916 28.931916 0 0 1-7.940305 0 21.721754 21.721754 0 0 1-3.741983-2.099161 56.951154 56.951154 0 0 0-7.666502-3.285643v-0.730143l-1.369018-3.376912-1.460286 1.003947-0.912678 4.745929v1.825358a14.60286 14.60286 0 0 0-2.464233 2.281697 10.495806 10.495806 0 0 0 0 3.376911l-1.186482 5.658608V282.930412a17.432164 17.432164 0 0 1 3.01184-6.480019zM868.231293 246.423262a14.967931 14.967931 0 0 0 5.019733-3.103108 48.828313 48.828313 0 0 1 6.84509-5.293537 29.114452 29.114452 0 0 0 5.202269-4.198322l2.099161-2.372965 4.472126-3.650715v-0.82141a25.920076 25.920076 0 0 0-9.126787-1.551554 9.948198 9.948198 0 0 0-5.111001 0.821411 18.801182 18.801182 0 0 0-3.376912 5.841144 149.679315 149.679315 0 0 1-5.749876 14.329056zM1040.453772 374.198287l22.634433-3.103108 2.646769-0.730143a11.773556 11.773556 0 0 0 3.01184-2.555501 14.420324 14.420324 0 0 1 2.738036-2.5555 2.646768 2.646768 0 0 1 2.372965 0h1.003946l1.825358-2.738036 1.369018 2.464232a6.571287 6.571287 0 0 0-1.095215 4.654662c0 0.821411 1.825357 1.551554 4.198323 2.190429a36.50715 36.50715 0 0 1 8.214108 3.468179h0.730143l10.678342 6.02368a28.840648 28.840648 0 0 0 9.126787 4.107054 44.082384 44.082384 0 0 1-1.916625-9.765662l1.186482-0.547608V374.198287l-1.551554-2.646769h1.825358a26.741487 26.741487 0 0 1 3.194375 5.111001 16.793289 16.793289 0 0 1 2.646769 8.031573 11.59102 11.59102 0 0 0 0 3.559447v1.551554a9.126787 9.126787 0 0 1-1.095215 2.920572 26.650219 26.650219 0 0 0-1.916625 5.111001 13.781449 13.781449 0 0 1-1.825358 4.107055 16.154414 16.154414 0 0 1-2.738036 2.829304 6.936358 6.936358 0 0 1-3.468179 1.460286 39.245186 39.245186 0 0 1-6.480019-7.027627l-2.920572-2.920572-5.476073-5.476072a6.297483 6.297483 0 0 0-1.003946 1.186482v5.202269a14.511592 14.511592 0 0 1-4.837198 9.126788l-4.472126 4.28959-1.003946 1.186482 1.369018 1.186482 4.015786 8.579181 1.277751 1.186482a10.222002 10.222002 0 0 0 1.642821-1.825358v-2.646768c0-0.912679 1.186482-0.912679 1.551554 0s0 0.821411 0 2.281697a7.849037 7.849037 0 0 0 0 3.559447 18.253575 18.253575 0 0 0 2.646769 4.74593 5.293537 5.293537 0 0 0 1.825357 1.916625 3.924519 3.924519 0 0 1 2.007893 1.825357c-0.547607 1.825357-1.095214 3.833251-1.825357 5.841144s-1.369018 4.107054-2.007893 6.297484-1.27775 3.468179-2.281697 3.559447l-4.015787 1.003947a6.388751 6.388751 0 0 1-1.003946-2.099162v-5.111001a18.89245 18.89245 0 0 0-1.916626-5.932411 56.586082 56.586082 0 0 1-3.285643-7.210163 108.243699 108.243699 0 0 0-6.845091-12.86877 10.130734 10.130734 0 0 0-4.563393 1.095215l-3.559448 1.916625-6.206215 3.650715a47.276759 47.276759 0 0 1 7.940305 14.967931 14.511592 14.511592 0 0 1 0 13.142574c-2.190429 2.920572-4.380858 5.476072-6.480019 7.940306a29.570791 29.570791 0 0 1-4.380858 4.563393 6.388751 6.388751 0 0 1-2.555501 1.095215 15.971878 15.971878 0 0 1-6.206215-1.551554 5.384805 5.384805 0 0 0-2.099161-3.650715 4.380858 4.380858 0 0 1 0-1.551554l-0.547607-3.924519a6.114948 6.114948 0 0 1 0-1.825357v-6.114948a40.249133 40.249133 0 0 0-0.730143-6.571287l2.281696-3.83325h0.821411V438.085799c0 1.27775 1.369018 2.738036 4.928466 4.745929a10.130734 10.130734 0 0 0 3.650715 1.186483c1.095214 0 2.281697-1.003947 3.650715-2.829304a11.408484 11.408484 0 0 0-2.372965-15.971878h-0.547607l-1.642822 1.27775-16.154414 9.126787-5.111001 2.464233-1.460286 0.821411a20.900343 20.900343 0 0 1-12.138627 2.920572 7.392698 7.392698 0 0 1-6.297484-2.281697c-0.730143-1.095214-0.912679-1.73409 0-2.099161s0-0.547607 0.730143-1.460286l1.916626-6.297484a5.841144 5.841144 0 0 1 1.369018-2.829304l2.372965-3.285643 1.27775-2.372965 1.642822-2.190429 1.369018-3.924519 2.829304-3.194375-0.730143-1.186483a29.296988 29.296988 0 0 0-5.658608 0l-3.285644-1.095214h-7.483966c-1.003947 0-1.003947-1.551554 0-3.741983a61.514548 61.514548 0 0 0 1.551554-6.84509 5.56734 5.56734 0 0 1 1.186483-4.107055 4.928465 4.928465 0 0 1 1.825357-0.912679l3.468179-1.825357 7.75777-1.916625a29.023184 29.023184 0 0 1 10.495805 0 7.575234 7.575234 0 0 1 4.928465 2.829304 5.841144 5.841144 0 0 1 0 6.388751l-3.468179 4.745929-2.099161 3.833251a91.267875 91.267875 0 0 1 9.126788 4.837197 24.277255 24.277255 0 0 0 6.662554 2.920572 20.991611 20.991611 0 0 1 3.741983-3.194375l6.388752-3.285644 3.83325-2.920572c0-1.095214-0.912679-1.642822-2.372964-1.916625a90.263928 90.263928 0 0 0-8.031573-6.571287l-7.118895-4.107054-2.372964-2.007894-6.571287-4.015786-1.73409-1.27775-6.936359-3.924519a2.920572 2.920572 0 0 1 1.003947-2.190429l3.01184-2.829304 3.01184-3.376911 1.734089-1.003947a8.57918 8.57918 0 0 1 2.099162-0.912679s-0.730143 0 1.460286 1.642822z m-20.444003 27.380362l6.571286 3.376911a22.360629 22.360629 0 0 0 4.472126-6.388751l-1.551554-2.099161z m3.468179 24.91613a6.114948 6.114948 0 0 0 1.825357 0 5.841144 5.841144 0 0 0 3.468179-1.095215l6.02368-3.285643a53.482975 53.482975 0 0 0 5.019733-2.738036 12.503699 12.503699 0 0 0 2.555501-2.372965l-1.003947-0.730143-6.02368-1.460286-3.468179-1.186483h-4.472126a23.18204 23.18204 0 0 0-4.015786 12.868771z m47.824366-26.102612l5.658608-2.372965 4.015787-3.285644c-1.73409-6.02368-2.190429-9.674395-1.27775-11.13468h2.464232a15.059199 15.059199 0 0 0-7.392698-8.305377 12.229895 12.229895 0 0 1-1.825357 1.916625s-1.642822 1.27775-3.559447 2.464233a10.31327 10.31327 0 0 1-5.841144 1.825358h-10.31327a100.394662 100.394662 0 0 1 18.253575 18.89245z" fill="#F6C48B" p-id="9773"></path><path d="M1401.053146 478.517467a7.666501 7.666501 0 0 0-7.666502 7.75777v31.031077a7.666501 7.666501 0 0 0 7.666502 7.666502 7.757769 7.757769 0 0 0 7.757769-7.666502v-31.031077a7.757769 7.757769 0 0 0-7.757769-7.75777z m0 73.744443a7.575234 7.575234 0 0 0-7.666502 7.666502v31.031077a7.757769 7.757769 0 1 0 15.424271 0v-31.031077a7.757769 7.757769 0 0 0-7.757769-7.666502z m-25.555005-21.44795h-31.031078a7.849037 7.849037 0 1 0 0 15.606806h31.031078a7.849037 7.849037 0 0 0 7.757769-7.849037 7.757769 7.757769 0 0 0-7.757769-7.757769z m82.141087 0h-31.031077a7.849037 7.849037 0 1 0 0 15.606806h31.122345a7.849037 7.849037 0 0 0 7.757769-7.849037 7.757769 7.757769 0 0 0-8.214108-7.757769z" fill="#F34541" p-id="9774"></path></svg>